<svg width="25" height="23" viewBox="0 0 25 23" fill="#fff" xmlns="http://www.w3.org/2000/svg">
<path d="M9.2848 13.4709C10.1528 13.4376 11.2813 13.5541 12.4097 13.6705C12.4887 13.6788 12.5834 13.6705 12.6149 13.7619C12.6465 13.8534 12.5676 13.9116 12.5202 13.9781C11.447 15.3501 10.3738 16.7221 9.30848 18.1024C9.18222 18.2687 9.03228 18.2604 8.85867 18.2687C7.39879 18.3186 6.06516 18.7593 4.93671 19.7821C4.10813 20.5221 3.56363 21.4617 3.49261 22.6508C3.47682 22.8836 3.39002 22.9834 3.16117 22.9834C2.67981 22.9751 2.19844 22.9751 1.70918 22.9834C1.53557 22.9834 1.40931 22.9169 1.29883 22.7755C1.02264 22.4346 0.730661 22.1103 0.454467 21.7694C-0.113705 21.0792 -0.176835 20.0731 0.422902 19.4328C1.3304 18.4516 1.89068 17.2543 2.53776 16.1068C2.76661 15.7077 2.98757 15.3002 3.20063 14.8928C3.5005 14.3107 3.97398 13.9864 4.57371 13.8534C5.41808 13.6621 6.28612 13.5956 7.15416 13.5291C7.78546 13.4792 8.40098 13.4792 9.2848 13.4709Z" fill="currentColor"/>
<path d="M12.8753 8.17419C12.8674 10.6355 10.9656 12.3983 8.88227 12.3401C6.85421 12.2818 5.16548 10.3777 5.18126 8.08272C5.19704 5.80438 6.96469 3.97506 9.1269 4.00001C11.1628 4.01664 12.891 5.94574 12.8753 8.17419Z" fill="currentColor"/>
<path d="M15.5898 22.9917C15.3452 22.9917 15.1006 22.9917 14.848 22.9917C14.6981 22.9917 14.6113 22.9418 14.5955 22.7672C14.4377 20.8131 13.3013 19.649 11.7152 18.8674C11.4153 18.7177 11.0839 18.618 10.7682 18.5182C10.4368 18.4101 10.4289 18.4018 10.642 18.1274C11.5574 16.9549 12.4728 15.7825 13.3803 14.6101C13.4197 14.5602 13.4592 14.5103 13.4907 14.4687C13.8774 13.9615 13.9326 13.9532 14.4298 14.3606C14.5955 14.4937 14.7139 14.6683 14.8244 14.8595C15.432 15.9654 16.0317 17.0713 16.6472 18.1773C16.8919 18.618 17.247 18.9755 17.5784 19.3414C18.1466 19.9567 18.1782 21.1541 17.5705 21.8193C17.3022 22.1103 17.0418 22.4096 16.8051 22.7256C16.6472 22.9335 16.4657 23.0166 16.2132 22.9917C16.0002 22.9751 15.795 22.9917 15.5898 22.9917Z" fill="currentColor"/>
<path d="M9.04012 22.9834C7.68282 22.9834 6.31763 22.9834 4.96033 22.9834C4.51053 22.9834 4.47107 22.9252 4.55787 22.4512C4.73148 21.4783 5.29965 20.7965 6.04933 20.256C7.89588 18.9339 10.6973 19.0836 12.4176 20.5803C13.0173 21.1042 13.4119 21.7527 13.5303 22.5759C13.5855 22.9252 13.546 22.9834 13.2067 22.9834C11.8178 22.9834 10.429 22.9834 9.04012 22.9834Z" fill="currentColor"/>
<path d="M20.9547 4.964V7.316H23.3207C23.4887 7.316 23.61 7.45133 23.6847 7.722C23.722 7.862 23.7407 7.99733 23.7407 8.128C23.7407 8.25867 23.722 8.394 23.6847 8.534C23.61 8.80467 23.4887 8.94 23.3207 8.94H20.9547V11.334C20.9547 11.502 20.8194 11.6233 20.5487 11.698C20.418 11.7353 20.2827 11.754 20.1427 11.754L19.7367 11.698C19.466 11.6233 19.3307 11.502 19.3307 11.334V8.94H16.9507C16.7827 8.94 16.6614 8.80467 16.5867 8.534C16.5494 8.394 16.5307 8.25867 16.5307 8.128C16.5307 7.99733 16.5494 7.862 16.5867 7.722C16.6614 7.45133 16.7827 7.316 16.9507 7.316H19.3307V4.964C19.3307 4.796 19.466 4.67467 19.7367 4.6C19.8674 4.56267 20.0027 4.544 20.1427 4.544L20.5487 4.6C20.8194 4.67467 20.9547 4.796 20.9547 4.964Z" fill="currentColor"/>
</svg>
