<svg width="24" height="24" viewBox="0 0 24 24" fill="#fff" xmlns="http://www.w3.org/2000/svg">
<path d="M9.99992 14C12.3011 14 14.1666 12.1345 14.1666 9.83333C14.1666 7.53215 12.3011 5.66667 9.99992 5.66667C7.69873 5.66667 5.83325 7.53215 5.83325 9.83333C5.83325 12.1345 7.69873 14 9.99992 14Z" fill="currentColor"/>
<path d="M10 16.0833C5.82505 16.0833 2.42505 18.8833 2.42505 22.3333C2.42505 22.5667 2.60838 22.75 2.84172 22.75H17.1584C17.3917 22.75 17.575 22.5667 17.575 22.3333C17.575 18.8833 14.175 16.0833 10 16.0833Z" fill="currentColor"/>
<path d="M20.942 4.964V7.316H23.308C23.476 7.316 23.5973 7.45133 23.672 7.722C23.7093 7.862 23.728 7.99733 23.728 8.128C23.728 8.25867 23.7093 8.394 23.672 8.534C23.5973 8.80467 23.476 8.94 23.308 8.94H20.942V11.334C20.942 11.502 20.8067 11.6233 20.536 11.698C20.4053 11.7353 20.27 11.754 20.13 11.754L19.724 11.698C19.4533 11.6233 19.318 11.502 19.318 11.334V8.94H16.938C16.77 8.94 16.6487 8.80467 16.574 8.534C16.5367 8.394 16.518 8.25867 16.518 8.128C16.518 7.99733 16.5367 7.862 16.574 7.722C16.6487 7.45133 16.77 7.316 16.938 7.316H19.318V4.964C19.318 4.796 19.4533 4.67467 19.724 4.6C19.8547 4.56267 19.99 4.544 20.13 4.544L20.536 4.6C20.8067 4.67467 20.942 4.796 20.942 4.964Z" fill="currentColor"/>
</svg>
