<svg width="29" height="26" viewBox="0 0 29 26" fill="#fff" xmlns="http://www.w3.org/2000/svg">
<path d="M25.942 4.964V7.316H28.308C28.476 7.316 28.5973 7.45133 28.672 7.722C28.7093 7.862 28.728 7.99733 28.728 8.128C28.728 8.25867 28.7093 8.394 28.672 8.534C28.5973 8.80467 28.476 8.94 28.308 8.94H25.942V11.334C25.942 11.502 25.8067 11.6233 25.536 11.698C25.4053 11.7353 25.27 11.754 25.13 11.754L24.724 11.698C24.4533 11.6233 24.318 11.502 24.318 11.334V8.94H21.938C21.77 8.94 21.6487 8.80467 21.574 8.534C21.5367 8.394 21.518 8.25867 21.518 8.128C21.518 7.99733 21.5367 7.862 21.574 7.722C21.6487 7.45133 21.77 7.316 21.938 7.316H24.318V4.964C24.318 4.796 24.4533 4.67467 24.724 4.6C24.8547 4.56267 24.99 4.544 25.13 4.544L25.536 4.6C25.8067 4.67467 25.942 4.796 25.942 4.964Z" fill="currentColor"/>
<path d="M14.1663 6.75H6.83375C3.64875 6.75 1.75 8.64875 1.75 11.8337V19.1663C1.75 21.625 2.87875 23.3137 4.865 23.9525C5.4425 24.1537 6.1075 24.25 6.83375 24.25H14.1663C14.8925 24.25 15.5575 24.1537 16.135 23.9525C18.1213 23.3137 19.25 21.625 19.25 19.1663V11.8337C19.25 8.64875 17.3513 6.75 14.1663 6.75ZM17.9375 19.1663C17.9375 21.0388 17.2025 22.22 15.7237 22.71C14.875 21.0387 12.8625 19.8487 10.5 19.8487C8.1375 19.8487 6.13375 21.03 5.27625 22.71H5.2675C3.80625 22.2375 3.0625 21.0475 3.0625 19.175V11.8337C3.0625 9.36625 4.36625 8.0625 6.83375 8.0625H14.1663C16.6337 8.0625 17.9375 9.36625 17.9375 11.8337V19.1663Z" fill="currentColor"/>
<path d="M10.4999 12C8.76743 12 7.36743 13.4 7.36743 15.1325C7.36743 16.865 8.76743 18.2738 10.4999 18.2738C12.2324 18.2738 13.6324 16.865 13.6324 15.1325C13.6324 13.4 12.2324 12 10.4999 12Z" fill="currentColor"/>
</svg>
