<svg width="25" height="23" viewBox="0 0 25 23" fill="#fff" xmlns="http://www.w3.org/2000/svg">
<path d="M11.1738 14.0546L6.91658 16.5205C6.74519 16.62 6.52956 16.62 6.35264 16.5205L2.09543 14.0546C1.79134 13.8777 1.71394 13.463 1.94615 13.2032C2.10649 13.0207 2.28894 12.8714 2.48245 12.7664L5.47908 11.1077C6.12043 10.7484 7.15985 10.7484 7.8012 11.1077L10.7978 12.7664C10.9913 12.8714 11.1738 13.0262 11.3341 13.2032C11.5553 13.463 11.4779 13.8777 11.1738 14.0546Z" fill="currentColor"/>
<path d="M6.31969 17.5485V21.3192C6.31969 21.7394 5.89397 22.0158 5.51801 21.8334C4.37907 21.275 2.46056 20.23 2.46056 20.23C1.78604 19.8485 1.23315 18.8865 1.23315 18.0959V15.243C1.23315 14.8062 1.69205 14.5298 2.06801 14.7454L6.04325 17.0509C6.20912 17.156 6.31969 17.344 6.31969 17.5485Z" fill="currentColor"/>
<path d="M6.94995 17.5485V21.3192C6.94995 21.7394 7.37567 22.0158 7.75163 21.8334C8.89058 21.275 10.8091 20.23 10.8091 20.23C11.4836 19.8485 12.0365 18.8865 12.0365 18.0959V15.243C12.0365 14.8062 11.5776 14.5298 11.2016 14.7454L7.22639 17.0509C7.06053 17.156 6.94995 17.344 6.94995 17.5485Z" fill="currentColor"/>
<path d="M22.6738 14.0546L18.4166 16.5205C18.2452 16.62 18.0296 16.62 17.8526 16.5205L13.5954 14.0546C13.2913 13.8777 13.2139 13.463 13.4462 13.2032C13.6065 13.0207 13.7889 12.8714 13.9824 12.7664L16.9791 11.1077C17.6204 10.7484 18.6599 10.7484 19.3012 11.1077L22.2978 12.7664C22.4913 12.8714 22.6738 13.0262 22.8341 13.2032C23.0553 13.463 22.9779 13.8777 22.6738 14.0546Z" fill="currentColor"/>
<path d="M17.8197 17.5485V21.3192C17.8197 21.7394 17.394 22.0158 17.018 21.8334C15.8791 21.275 13.9606 20.23 13.9606 20.23C13.286 19.8485 12.7332 18.8865 12.7332 18.0959V15.243C12.7332 14.8062 13.192 14.5298 13.568 14.7454L17.5433 17.0509C17.7091 17.156 17.8197 17.344 17.8197 17.5485Z" fill="currentColor"/>
<path d="M18.45 17.5485V21.3192C18.45 21.7394 18.8757 22.0158 19.2516 21.8334C20.3906 21.275 22.3091 20.23 22.3091 20.23C22.9836 19.8485 23.5365 18.8865 23.5365 18.0959V15.243C23.5365 14.8062 23.0776 14.5298 22.7016 14.7454L18.7264 17.0509C18.5605 17.156 18.45 17.344 18.45 17.5485Z" fill="currentColor"/>
<path d="M16.4814 4.03552L12.2242 6.33699C12.0528 6.42988 11.8372 6.42988 11.6603 6.33699L7.40305 4.03552C7.09896 3.87039 7.02156 3.48337 7.25377 3.24084C7.4141 3.07055 7.59656 2.93122 7.79007 2.83318L10.7867 1.2851C11.428 0.949685 12.4675 0.949685 13.1088 1.2851L16.1055 2.83318C16.299 2.93122 16.4814 3.07571 16.6417 3.24084C16.8629 3.48337 16.7855 3.87039 16.4814 4.03552Z" fill="currentColor"/>
<path d="M11.6273 7.29652V10.8158C11.6273 11.208 11.2016 11.466 10.8256 11.2957C9.68668 10.7745 7.76818 9.79924 7.76818 9.79924C7.09366 9.44318 6.54077 8.5453 6.54077 7.80738V5.14469C6.54077 4.73703 6.99967 4.47902 7.37563 4.68027L11.3509 6.83209C11.5167 6.93014 11.6273 7.10559 11.6273 7.29652Z" fill="currentColor"/>
<path d="M12.2576 7.29652V10.8158C12.2576 11.208 12.6833 11.466 13.0593 11.2957C14.1982 10.7745 16.1167 9.79924 16.1167 9.79924C16.7912 9.44318 17.3441 8.5453 17.3441 7.80738V5.14469C17.3441 4.73703 16.8852 4.47902 16.5093 4.68027L12.534 6.83209C12.3681 6.93014 12.2576 7.10559 12.2576 7.29652Z" fill="currentColor"/>
</svg>
