<svg width="23" height="16" viewBox="0 0 23 16" fill="#fff" xmlns="http://www.w3.org/2000/svg">
<path d="M5.15822 10.4832C5.64047 10.4639 6.26739 10.5313 6.8943 10.5987C6.93815 10.6035 6.99075 10.5987 7.00829 10.6517C7.02583 10.7046 6.98199 10.7383 6.95568 10.7768C6.35945 11.5711 5.76322 12.3654 5.17138 13.1646C5.10123 13.2608 5.01793 13.256 4.92149 13.2608C4.11044 13.2897 3.36954 13.5449 2.74262 14.137C2.28229 14.5654 1.97979 15.1094 1.94034 15.7978C1.93157 15.9326 1.88335 15.9904 1.75621 15.9904C1.48878 15.9856 1.22135 15.9856 0.949544 15.9904C0.853095 15.9904 0.782951 15.9519 0.721574 15.87C0.568133 15.6727 0.405923 15.4849 0.252482 15.2875C-0.0631694 14.888 -0.0982418 14.3055 0.234945 13.9348C0.73911 13.3668 1.05038 12.6735 1.40987 12.0092C1.53701 11.7781 1.65976 11.5422 1.77813 11.3064C1.94472 10.9694 2.20776 10.7816 2.54095 10.7046C3.01004 10.5939 3.49229 10.5554 3.97453 10.5169C4.32526 10.488 4.66721 10.488 5.15822 10.4832Z" fill="currentColor"/>
<path d="M7.15292 7.41665C7.14854 8.8416 6.09198 9.86217 4.93459 9.82847C3.8079 9.79477 2.86971 8.69237 2.87848 7.3637C2.88725 6.04466 3.86927 4.98558 5.0705 5.00002C6.20158 5.00965 7.16169 6.1265 7.15292 7.41665Z" fill="currentColor"/>
<path d="M8.66117 15.9952C8.52526 15.9952 8.38936 15.9952 8.24907 15.9952C8.16577 15.9952 8.11755 15.9663 8.10878 15.8652C8.0211 14.7339 7.3898 14.06 6.5086 13.6075C6.34201 13.5208 6.15788 13.463 5.98252 13.4053C5.79839 13.3427 5.79401 13.3379 5.91238 13.179C6.42092 12.5002 6.92947 11.8215 7.43364 11.1427C7.45556 11.1138 7.47748 11.0849 7.49501 11.0609C7.70983 10.7672 7.74052 10.7624 8.01672 10.9983C8.10878 11.0753 8.17454 11.1764 8.23592 11.2871C8.57349 11.9274 8.90668 12.5676 9.24863 13.2079C9.38454 13.463 9.58182 13.67 9.76595 13.8819C10.0816 14.2381 10.0991 14.9313 9.76156 15.3164C9.61251 15.4849 9.46783 15.6582 9.33631 15.8412C9.24863 15.9615 9.1478 16.0097 9.00751 15.9952C8.88914 15.9856 8.77515 15.9952 8.66117 15.9952Z" fill="currentColor"/>
<path d="M5.02223 15.9904C4.26818 15.9904 3.50974 15.9904 2.75568 15.9904C2.50579 15.9904 2.48387 15.9567 2.5321 15.6823C2.62855 15.1191 2.9442 14.7243 3.36068 14.4114C4.38655 13.646 5.94288 13.7326 6.8986 14.5992C7.23179 14.9024 7.45099 15.2779 7.51675 15.7545C7.54744 15.9567 7.52552 15.9904 7.33701 15.9904C6.56542 15.9904 5.79383 15.9904 5.02223 15.9904Z" fill="currentColor"/>
<path d="M14.7339 7.97545C15.4573 7.94744 16.3977 8.04548 17.338 8.14351C17.4038 8.15051 17.4827 8.14351 17.509 8.22053C17.5353 8.29755 17.4696 8.34657 17.4301 8.40259C16.5358 9.55795 15.6414 10.7133 14.7536 11.8757C14.6484 12.0157 14.5235 12.0087 14.3788 12.0157C13.1622 12.0577 12.0509 12.4288 11.1105 13.2901C10.42 13.9133 9.96627 14.7046 9.90709 15.7059C9.89394 15.9019 9.8216 15.986 9.63089 15.986C9.22975 15.979 8.82861 15.979 8.4209 15.986C8.27622 15.986 8.17101 15.9299 8.07894 15.8109C7.84878 15.5238 7.60547 15.2507 7.3753 14.9636C6.90183 14.3825 6.84922 13.5352 7.349 12.996C8.10525 12.1698 8.57215 11.1614 9.11138 10.1951C9.30209 9.85904 9.48622 9.51593 9.66377 9.17283C9.91366 8.68267 10.3082 8.40959 10.808 8.29755C11.5116 8.1365 12.235 8.08049 12.9584 8.02447C13.4845 7.98246 13.9974 7.98246 14.7339 7.97545Z" fill="currentColor"/>
<path d="M17.726 3.51507C17.7194 5.58771 16.1346 7.07218 14.3985 7.02316C12.7084 6.97415 11.3011 5.37065 11.3143 3.43804C11.3275 1.51944 12.8005 -0.0210384 14.6023 -3.18294e-05C16.299 0.0139725 17.7391 1.63848 17.726 3.51507Z" fill="currentColor"/>
<path d="M19.9882 15.993C19.7844 15.993 19.5805 15.993 19.3701 15.993C19.2451 15.993 19.1728 15.951 19.1596 15.8039C19.0281 14.1584 18.0812 13.1781 16.7594 12.5199C16.5095 12.3938 16.2333 12.3098 15.9702 12.2258C15.694 12.1348 15.6875 12.1278 15.865 11.8967C16.6278 10.9094 17.3907 9.92207 18.1469 8.93476C18.1798 8.89274 18.2127 8.85073 18.239 8.81572C18.5612 8.38859 18.6072 8.38158 19.0215 8.72469C19.1596 8.83673 19.2583 8.98377 19.3503 9.14482C19.8567 10.0761 20.3565 11.0074 20.8694 11.9387C21.0733 12.3098 21.3692 12.6109 21.6454 12.919C22.1189 13.4372 22.1452 14.4455 21.6388 15.0057C21.4152 15.2507 21.1982 15.5028 21.0009 15.7689C20.8694 15.9439 20.7182 16.014 20.5077 15.993C20.3302 15.979 20.1592 15.993 19.9882 15.993Z" fill="currentColor"/>
<path d="M14.5301 15.986C13.399 15.986 12.2613 15.986 11.1302 15.986C10.7554 15.986 10.7225 15.9369 10.7949 15.5378C10.9395 14.7186 11.413 14.1444 12.0377 13.6892C13.5765 12.5759 15.911 12.7019 17.3446 13.9623C17.8444 14.4035 18.1732 14.9496 18.2718 15.6429C18.3179 15.9369 18.285 15.986 18.0022 15.986C16.8448 15.986 15.6874 15.986 14.5301 15.986Z" fill="currentColor"/>
</svg>
