<svg width="25" height="17" viewBox="0 0 25 17" fill="#fff" xmlns="http://www.w3.org/2000/svg">
<path d="M17.9999 7C19.6107 7 20.9166 5.69417 20.9166 4.08333C20.9166 2.4725 19.6107 1.16667 17.9999 1.16667C16.3891 1.16667 15.0833 2.4725 15.0833 4.08333C15.0833 5.69417 16.3891 7 17.9999 7Z" fill="currentColor"/>
<path d="M18 8.45833C15.0775 8.45833 12.6975 10.4183 12.6975 12.8333C12.6975 12.9967 12.8258 13.125 12.9892 13.125H23.0108C23.1742 13.125 23.3025 12.9967 23.3025 12.8333C23.3025 10.4183 20.9225 8.45833 18 8.45833Z" fill="currentColor"/>
<path d="M6.99992 7C8.61075 7 9.91659 5.69417 9.91659 4.08333C9.91659 2.4725 8.61075 1.16667 6.99992 1.16667C5.38909 1.16667 4.08325 2.4725 4.08325 4.08333C4.08325 5.69417 5.38909 7 6.99992 7Z" fill="currentColor"/>
<path d="M7.00001 8.45833C4.07751 8.45833 1.69751 10.4183 1.69751 12.8333C1.69751 12.9967 1.82584 13.125 1.98918 13.125H12.0108C12.1742 13.125 12.3025 12.9967 12.3025 12.8333C12.3025 10.4183 9.92251 8.45833 7.00001 8.45833Z" fill="currentColor"/>
<path d="M12.9999 10C14.6107 10 15.9166 8.69417 15.9166 7.08333C15.9166 5.4725 14.6107 4.16667 12.9999 4.16667C11.3891 4.16667 10.0833 5.4725 10.0833 7.08333C10.0833 8.69417 11.3891 10 12.9999 10Z" fill="currentColor"/>
<path d="M13 11.4583C10.0775 11.4583 7.69751 13.4183 7.69751 15.8333C7.69751 15.9967 7.82584 16.125 7.98918 16.125H18.0108C18.1742 16.125 18.3025 15.9967 18.3025 15.8333C18.3025 13.4183 15.9225 11.4583 13 11.4583Z" fill="currentColor"/>
</svg>
