<svg width="47" height="47" viewBox="0 0 47 47" fill="#fff" xmlns="http://www.w3.org/2000/svg">
<path fill-rule="evenodd" clip-rule="evenodd" d="M10.9666 7.83337C9.23609 7.83337 7.83325 9.23622 7.83325 10.9667V17.2334C7.83325 18.9639 9.23609 20.3667 10.9666 20.3667H17.2333C18.9637 20.3667 20.3666 18.9639 20.3666 17.2334V10.9667C20.3666 9.23622 18.9637 7.83337 17.2333 7.83337H10.9666ZM10.9666 26.6334C9.23609 26.6334 7.83325 28.0362 7.83325 29.7667V36.0334C7.83325 37.7639 9.23609 39.1667 10.9666 39.1667H17.2333C18.9637 39.1667 20.3666 37.7639 20.3666 36.0334V29.7667C20.3666 28.0362 18.9637 26.6334 17.2333 26.6334H10.9666ZM26.6333 29.7667C26.6333 28.0362 28.0361 26.6334 29.7666 26.6334H36.0333C37.7637 26.6334 39.1666 28.0362 39.1666 29.7667V36.0334C39.1666 37.7639 37.7637 39.1667 36.0333 39.1667H29.7666C28.0361 39.1667 26.6333 37.7639 26.6333 36.0334V29.7667ZM29.7666 7.83337C28.0361 7.83337 26.6333 9.23622 26.6333 10.9667V17.2334C26.6333 18.9639 28.0361 20.3667 29.7666 20.3667H36.0333C37.7637 20.3667 39.1666 18.9639 39.1666 17.2334V10.9667C39.1666 9.23622 37.7637 7.83337 36.0333 7.83337H29.7666Z" fill="#fff"/>
</svg>
