<svg width="16" height="16" viewBox="0 0 16 16" fill="none" xmlns="http://www.w3.org/2000/svg">
<path d="M5.33325 3.83301C5.05992 3.83301 4.83325 3.60634 4.83325 3.33301V1.33301C4.83325 1.05967 5.05992 0.833008 5.33325 0.833008C5.60659 0.833008 5.83325 1.05967 5.83325 1.33301V3.33301C5.83325 3.60634 5.60659 3.83301 5.33325 3.83301Z" fill="#0E324A"/>
<path d="M10.6667 3.83301C10.3934 3.83301 10.1667 3.60634 10.1667 3.33301V1.33301C10.1667 1.05967 10.3934 0.833008 10.6667 0.833008C10.9401 0.833008 11.1667 1.05967 11.1667 1.33301V3.33301C11.1667 3.60634 10.9401 3.83301 10.6667 3.83301Z" fill="#0E324A"/>
<path d="M5.66667 9.66652C5.58 9.66652 5.49333 9.64652 5.41333 9.61319C5.32667 9.57985 5.26 9.53319 5.19333 9.47319C5.07333 9.34652 5 9.17985 5 8.99985C5 8.91319 5.02 8.82652 5.05333 8.74652C5.08667 8.66652 5.13333 8.59319 5.19333 8.52652C5.26 8.46652 5.32667 8.41985 5.41333 8.38652C5.65333 8.28652 5.95333 8.33985 6.14 8.52652C6.26 8.65319 6.33333 8.82652 6.33333 8.99985C6.33333 9.03985 6.32667 9.08652 6.32 9.13319C6.31333 9.17319 6.3 9.21319 6.28 9.25319C6.26667 9.29319 6.24667 9.33319 6.22 9.37319C6.2 9.40652 6.16667 9.43985 6.14 9.47319C6.01333 9.59319 5.84 9.66652 5.66667 9.66652Z" fill="#0E324A"/>
<path d="M8.00004 9.6666C7.91337 9.6666 7.82671 9.6466 7.74671 9.61327C7.66004 9.57994 7.59337 9.53327 7.52671 9.47327C7.40671 9.3466 7.33337 9.17994 7.33337 8.99994C7.33337 8.91327 7.35337 8.8266 7.38671 8.7466C7.42004 8.6666 7.46671 8.59327 7.52671 8.5266C7.59337 8.4666 7.66004 8.41994 7.74671 8.3866C7.98671 8.27994 8.28671 8.33994 8.47337 8.5266C8.59337 8.65327 8.66671 8.8266 8.66671 8.99994C8.66671 9.03994 8.66004 9.0866 8.65337 9.13327C8.64671 9.17327 8.63337 9.21327 8.61337 9.25327C8.60004 9.29327 8.58004 9.33327 8.55337 9.37327C8.53337 9.4066 8.50004 9.43994 8.47337 9.47327C8.34671 9.59327 8.17337 9.6666 8.00004 9.6666Z" fill="#0E324A"/>
<path d="M10.3333 9.6666C10.2466 9.6666 10.16 9.6466 10.08 9.61327C9.99329 9.57994 9.92663 9.53327 9.85996 9.47327C9.83329 9.43994 9.80663 9.4066 9.77996 9.37327C9.75329 9.33327 9.73329 9.29327 9.71996 9.25327C9.69996 9.21327 9.68663 9.17327 9.67996 9.13327C9.67329 9.0866 9.66663 9.03994 9.66663 8.99994C9.66663 8.8266 9.73996 8.65327 9.85996 8.5266C9.92663 8.4666 9.99329 8.41994 10.08 8.3866C10.3266 8.27994 10.62 8.33994 10.8066 8.5266C10.9266 8.65327 11 8.8266 11 8.99994C11 9.03994 10.9933 9.0866 10.9866 9.13327C10.98 9.17327 10.9666 9.21327 10.9466 9.25327C10.9333 9.29327 10.9133 9.33327 10.8866 9.37327C10.8666 9.4066 10.8333 9.43994 10.8066 9.47327C10.68 9.59327 10.5066 9.6666 10.3333 9.6666Z" fill="#0E324A"/>
<path d="M5.66667 11.9998C5.58 11.9998 5.49333 11.9798 5.41333 11.9465C5.33333 11.9131 5.26 11.8665 5.19333 11.8065C5.07333 11.6798 5 11.5065 5 11.3331C5 11.2465 5.02 11.1598 5.05333 11.0798C5.08667 10.9931 5.13333 10.9198 5.19333 10.8598C5.44 10.6131 5.89333 10.6131 6.14 10.8598C6.26 10.9865 6.33333 11.1598 6.33333 11.3331C6.33333 11.5065 6.26 11.6798 6.14 11.8065C6.01333 11.9265 5.84 11.9998 5.66667 11.9998Z" fill="#0E324A"/>
<path d="M7.99992 11.9998C7.82659 11.9998 7.65325 11.9265 7.52659 11.8065C7.40659 11.6798 7.33325 11.5065 7.33325 11.3331C7.33325 11.2465 7.35325 11.1598 7.38659 11.0798C7.41992 10.9931 7.46659 10.9198 7.52659 10.8598C7.77325 10.6131 8.22659 10.6131 8.47325 10.8598C8.53325 10.9198 8.57992 10.9931 8.61325 11.0798C8.64659 11.1598 8.66659 11.2465 8.66659 11.3331C8.66659 11.5065 8.59325 11.6798 8.47325 11.8065C8.34659 11.9265 8.17325 11.9998 7.99992 11.9998Z" fill="#0E324A"/>
<path d="M10.3333 11.9999C10.16 11.9999 9.98663 11.9266 9.85996 11.8066C9.79996 11.7466 9.75329 11.6733 9.71996 11.5866C9.68663 11.5066 9.66663 11.4199 9.66663 11.3333C9.66663 11.2466 9.68663 11.1599 9.71996 11.0799C9.75329 10.9933 9.79996 10.9199 9.85996 10.8599C10.0133 10.7066 10.2466 10.6333 10.46 10.6799C10.5066 10.6866 10.5466 10.6999 10.5866 10.7199C10.6266 10.7333 10.6666 10.7533 10.7066 10.7799C10.74 10.7999 10.7733 10.8333 10.8066 10.8599C10.9266 10.9866 11 11.1599 11 11.3333C11 11.5066 10.9266 11.6799 10.8066 11.8066C10.68 11.9266 10.5066 11.9999 10.3333 11.9999Z" fill="#0E324A"/>
<path d="M13.6666 6.55957H2.33325C2.05992 6.55957 1.83325 6.3329 1.83325 6.05957C1.83325 5.78624 2.05992 5.55957 2.33325 5.55957H13.6666C13.9399 5.55957 14.1666 5.78624 14.1666 6.05957C14.1666 6.3329 13.9399 6.55957 13.6666 6.55957Z" fill="#0E324A"/>
<path d="M10.6667 15.1663H5.33333C2.9 15.1663 1.5 13.7663 1.5 11.333V5.66634C1.5 3.23301 2.9 1.83301 5.33333 1.83301H10.6667C13.1 1.83301 14.5 3.23301 14.5 5.66634V11.333C14.5 13.7663 13.1 15.1663 10.6667 15.1663ZM5.33333 2.83301C3.42667 2.83301 2.5 3.75967 2.5 5.66634V11.333C2.5 13.2397 3.42667 14.1663 5.33333 14.1663H10.6667C12.5733 14.1663 13.5 13.2397 13.5 11.333V5.66634C13.5 3.75967 12.5733 2.83301 10.6667 2.83301H5.33333Z" fill="#0E324A"/>
</svg>
