<svg width="20" height="21" viewBox="0 0 20 21" fill="none" xmlns="http://www.w3.org/2000/svg">
<path d="M10.0003 2.1665C7.81699 2.1665 6.04199 3.9415 6.04199 6.12484C6.04199 8.2665 7.71699 9.99984 9.90033 10.0748C9.96699 10.0665 10.0337 10.0665 10.0837 10.0748C10.1003 10.0748 10.1087 10.0748 10.1253 10.0748C10.1337 10.0748 10.1337 10.0748 10.142 10.0748C12.2753 9.99984 13.9503 8.2665 13.9587 6.12484C13.9587 3.9415 12.1837 2.1665 10.0003 2.1665Z" fill="#0E324A"/>
<path d="M14.2338 12.2919C11.9088 10.7419 8.11712 10.7419 5.77546 12.2919C4.71712 13.0002 4.13379 13.9586 4.13379 14.9836C4.13379 16.0086 4.71712 16.9586 5.76712 17.6586C6.93379 18.4419 8.46712 18.8336 10.0005 18.8336C11.5338 18.8336 13.0671 18.4419 14.2338 17.6586C15.2838 16.9502 15.8671 16.0002 15.8671 14.9669C15.8588 13.9419 15.2838 12.9919 14.2338 12.2919ZM11.6171 15.7169C11.8588 15.9586 11.8588 16.3586 11.6171 16.6002C11.4921 16.7252 11.3338 16.7836 11.1755 16.7836C11.0171 16.7836 10.8588 16.7252 10.7338 16.6002L10.0005 15.8669L9.26712 16.6002C9.14212 16.7252 8.98379 16.7836 8.82546 16.7836C8.66712 16.7836 8.50879 16.7252 8.38379 16.6002C8.14212 16.3586 8.14212 15.9586 8.38379 15.7169L9.11712 14.9836L8.38379 14.2502C8.14212 14.0086 8.14212 13.6086 8.38379 13.3669C8.62546 13.1252 9.02546 13.1252 9.26712 13.3669L10.0005 14.1002L10.7338 13.3669C10.9755 13.1252 11.3755 13.1252 11.6171 13.3669C11.8588 13.6086 11.8588 14.0086 11.6171 14.2502L10.8838 14.9836L11.6171 15.7169Z" fill="#0E324A"/>
</svg>
