<svg width="13" height="15" viewBox="0 0 13 15" fill="none" xmlns="http://www.w3.org/2000/svg">
<path d="M11.375 13.3335H1.625C1.40292 13.3335 1.21875 13.1352 1.21875 12.896C1.21875 12.6568 1.40292 12.4585 1.625 12.4585H11.375C11.5971 12.4585 11.7812 12.6568 11.7812 12.896C11.7812 13.1352 11.5971 13.3335 11.375 13.3335Z" fill="white"/>
<path d="M10.3026 2.53013C9.25173 1.39847 8.22256 1.3693 7.14464 2.53013L6.48923 3.23597C6.43506 3.2943 6.41339 3.38763 6.43506 3.4693C6.84673 5.01513 7.99506 6.2518 9.43048 6.69513C9.45214 6.70097 9.47381 6.7068 9.49548 6.7068C9.55506 6.7068 9.60923 6.68347 9.65256 6.6368L10.3026 5.93097C10.8388 5.3593 11.0988 4.80513 11.0988 4.24513C11.1042 3.66763 10.8442 3.10763 10.3026 2.53013Z" fill="white"/>
<path d="M8.45551 7.22596C8.29842 7.1443 8.14676 7.06263 8.00051 6.9693C7.88134 6.89346 7.76759 6.8118 7.65384 6.7243C7.56176 6.66013 7.45342 6.5668 7.35051 6.47346C7.33967 6.46763 7.30176 6.43263 7.25842 6.38596C7.07967 6.22263 6.87926 6.01263 6.70051 5.7793C6.68426 5.76763 6.65717 5.7268 6.61926 5.6743C6.56509 5.6043 6.47301 5.48763 6.39176 5.35346C6.32676 5.26596 6.25092 5.13763 6.18051 5.0093C6.09384 4.8518 6.01801 4.6943 5.94217 4.53096C5.84563 4.30816 5.5528 4.24446 5.38757 4.42239L2.35092 7.69263C2.28051 7.76846 2.21551 7.9143 2.19926 8.01346L1.90676 10.2476C1.85259 10.6443 1.95551 11.0176 2.18301 11.2685C2.37801 11.4726 2.64884 11.5835 2.94134 11.5835C3.00634 11.5835 3.07134 11.5776 3.13634 11.566L5.21634 11.251C5.31384 11.2335 5.44926 11.1635 5.51426 11.0876L8.57473 7.79174C8.7381 7.6158 8.67307 7.32749 8.45551 7.22596Z" fill="white"/>
</svg>
