<svg width="18" height="17" viewBox="0 0 18 17" fill="none" xmlns="http://www.w3.org/2000/svg">
<path d="M15.9375 6.59995C14.205 4.17995 11.67 2.78662 9 2.78662C7.665 2.78662 6.3675 3.13329 5.1825 3.77995C3.9975 4.43329 2.9325 5.38662 2.0625 6.59995C1.3125 7.64662 1.3125 9.34662 2.0625 10.3933C3.795 12.82 6.33 14.2066 9 14.2066C10.335 14.2066 11.6325 13.86 12.8175 13.2133C14.0025 12.56 15.0675 11.6066 15.9375 10.3933C16.6875 9.35329 16.6875 7.64662 15.9375 6.59995ZM9 11.1933C7.32 11.1933 5.97 9.98662 5.97 8.49995C5.97 7.01329 7.32 5.80662 9 5.80662C10.68 5.80662 12.03 7.01329 12.03 8.49995C12.03 9.98662 10.68 11.1933 9 11.1933Z" fill="#0E324A"/>
<path d="M8.9998 6.59326C7.8223 6.59326 6.8623 7.44659 6.8623 8.49993C6.8623 9.54659 7.8223 10.3999 8.9998 10.3999C10.1773 10.3999 11.1448 9.54659 11.1448 8.49993C11.1448 7.45326 10.1773 6.59326 8.9998 6.59326Z" fill="#0E324A"/>
</svg>
