<svg width="23" height="22" viewBox="0 0 23 22" fill="none" xmlns="http://www.w3.org/2000/svg">
<path d="M21.0833 13.75C21.0833 17.2975 18.0838 20.1667 14.375 20.1667L15.3812 18.5625" stroke="white" stroke-width="1.5" stroke-linecap="round" stroke-linejoin="round"/>
<path d="M1.91675 8.25001C1.91675 4.70251 4.91633 1.83334 8.62508 1.83334L7.61883 3.43751" stroke="white" stroke-width="1.5" stroke-linecap="round" stroke-linejoin="round"/>
<path d="M21.0833 3.85001V3.95084C21.0833 4.20751 20.8725 4.40918 20.6042 4.40918H11.9792C11.7108 4.40918 11.5 4.20751 11.5 3.95084V3.85001C11.5 2.23668 11.9217 1.83334 13.6275 1.83334H18.9558C20.6617 1.83334 21.0833 2.23668 21.0833 3.85001Z" fill="white"/>
<path d="M11.9792 5.32584C11.7108 5.32584 11.5 5.5275 11.5 5.78417V6.70084V7.60834C11.5 9.22167 11.9217 9.625 13.6275 9.625H18.9558C20.6617 9.625 21.0833 9.22167 21.0833 7.60834V6.70084V5.78417C21.0833 5.5275 20.8725 5.32584 20.6042 5.32584H11.9792Z" fill="white"/>
<path d="M11.5001 14.3917V14.4925C11.5001 14.7492 11.2892 14.9508 11.0209 14.9508H2.39591C2.12758 14.9508 1.91675 14.7492 1.91675 14.4925V14.3917C1.91675 12.7783 2.33841 12.375 4.04425 12.375H9.37258C11.0784 12.375 11.5001 12.7783 11.5001 14.3917Z" fill="white"/>
<path d="M2.39591 15.8675C2.12758 15.8675 1.91675 16.0692 1.91675 16.3258V17.2425V18.15C1.91675 19.7633 2.33841 20.1667 4.04425 20.1667H9.37258C11.0784 20.1667 11.5001 19.7633 11.5001 18.15V17.2425V16.3258C11.5001 16.0692 11.2892 15.8675 11.0209 15.8675H2.39591Z" fill="white"/>
</svg>
