<svg width="19" height="19" viewBox="0 0 19 19" fill="#fff" xmlns="http://www.w3.org/2000/svg">
<path d="M9.2848 9.4709C10.1528 9.43764 11.2813 9.55405 12.4097 9.67046C12.4887 9.67878 12.5834 9.67046 12.6149 9.76193C12.6465 9.8534 12.5676 9.9116 12.5202 9.97812C11.447 11.3501 10.3738 12.7221 9.30848 14.1024C9.18222 14.2687 9.03228 14.2604 8.85867 14.2687C7.39879 14.3186 6.06516 14.7593 4.93671 15.7821C4.10813 16.5221 3.56363 17.4617 3.49261 18.6508C3.47682 18.8836 3.39002 18.9834 3.16117 18.9834C2.67981 18.9751 2.19844 18.9751 1.70918 18.9834C1.53557 18.9834 1.40931 18.9169 1.29883 18.7755C1.02264 18.4346 0.730661 18.1103 0.454467 17.7694C-0.113705 17.0792 -0.176835 16.0731 0.422902 15.4328C1.3304 14.4516 1.89068 13.2543 2.53776 12.1068C2.76661 11.7077 2.98757 11.3002 3.20063 10.8928C3.5005 10.3107 3.97398 9.98644 4.57371 9.8534C5.41808 9.66215 6.28612 9.59563 7.15416 9.52911C7.78546 9.47922 8.40098 9.47922 9.2848 9.4709Z" fill="white"/>
<path d="M12.8753 4.17419C12.8674 6.63546 10.9656 8.39826 8.88227 8.34005C6.85421 8.28185 5.16548 6.37769 5.18126 4.08272C5.19704 1.80438 6.96469 -0.0249373 9.1269 7.97893e-06C11.1628 0.0166382 12.891 1.94574 12.8753 4.17419Z" fill="white"/>
<path d="M15.5898 18.9917C15.3452 18.9917 15.1006 18.9917 14.848 18.9917C14.6981 18.9917 14.6113 18.9418 14.5955 18.7672C14.4377 16.8131 13.3013 15.649 11.7152 14.8674C11.4153 14.7177 11.0839 14.618 10.7682 14.5182C10.4368 14.4101 10.4289 14.4018 10.642 14.1274C11.5574 12.9549 12.4728 11.7825 13.3803 10.6101C13.4197 10.5602 13.4592 10.5103 13.4907 10.4687C13.8774 9.9615 13.9326 9.95318 14.4298 10.3606C14.5955 10.4937 14.7139 10.6683 14.8244 10.8595C15.432 11.9654 16.0317 13.0713 16.6472 14.1773C16.8919 14.618 17.247 14.9755 17.5784 15.3414C18.1466 15.9567 18.1782 17.1541 17.5705 17.8193C17.3022 18.1103 17.0418 18.4096 16.8051 18.7256C16.6472 18.9335 16.4657 19.0166 16.2132 18.9917C16.0002 18.9751 15.795 18.9917 15.5898 18.9917Z" fill="white"/>
<path d="M9.04012 18.9834C7.68282 18.9834 6.31763 18.9834 4.96033 18.9834C4.51053 18.9834 4.47107 18.9252 4.55787 18.4512C4.73148 17.4783 5.29965 16.7965 6.04933 16.256C7.89588 14.9339 10.6973 15.0836 12.4176 16.5803C13.0173 17.1042 13.4119 17.7527 13.5303 18.5759C13.5855 18.9252 13.546 18.9834 13.2067 18.9834C11.8178 18.9834 10.429 18.9834 9.04012 18.9834Z" fill="white"/>
</svg>
