<svg width="19" height="19" viewBox="0 0 19 19" fill="none" xmlns="http://www.w3.org/2000/svg">
<path d="M12.8171 1.58301H6.18296C3.30129 1.58301 1.58337 3.30092 1.58337 6.18259V12.8088C1.58337 15.6984 3.30129 17.4163 6.18296 17.4163H12.8092C15.6909 17.4163 17.4088 15.6984 17.4088 12.8168V6.18259C17.4167 3.30092 15.6988 1.58301 12.8171 1.58301ZM10.553 13.458H8.43921C8.11462 13.458 7.84546 13.1888 7.84546 12.8643C7.84546 12.5397 8.11462 12.2705 8.43921 12.2705H10.553C10.8775 12.2705 11.1467 12.5397 11.1467 12.8643C11.1467 13.1888 10.8855 13.458 10.553 13.458ZM12.6667 10.0934H6.33337C6.00879 10.0934 5.73962 9.82426 5.73962 9.49967C5.73962 9.17509 6.00879 8.90592 6.33337 8.90592H12.6667C12.9913 8.90592 13.2605 9.17509 13.2605 9.49967C13.2605 9.82426 12.9913 10.0934 12.6667 10.0934ZM14.25 6.72884H4.75004C4.42546 6.72884 4.15629 6.45967 4.15629 6.13509C4.15629 5.81051 4.42546 5.54134 4.75004 5.54134H14.25C14.5746 5.54134 14.8438 5.81051 14.8438 6.13509C14.8438 6.45967 14.5746 6.72884 14.25 6.72884Z" fill="currentColor"/>
</svg>
