<svg width="26" height="19" viewBox="0 0 26 19" fill="none" xmlns="http://www.w3.org/2000/svg">
<path d="M16.5001 9.5C18.6862 9.5 20.4584 7.7278 20.4584 5.54167C20.4584 3.35554 18.6862 1.58334 16.5001 1.58334C14.314 1.58334 12.5417 3.35554 12.5417 5.54167C12.5417 7.7278 14.314 9.5 16.5001 9.5Z" fill="white"/>
<path d="M16.5 11.4792C12.5337 11.4792 9.30371 14.1392 9.30371 17.4167C9.30371 17.6383 9.47788 17.8125 9.69954 17.8125H23.3004C23.522 17.8125 23.6962 17.6383 23.6962 17.4167C23.6962 14.1392 20.4662 11.4792 16.5 11.4792Z" fill="white"/>
<path d="M6.99992 9C8.61075 9 9.91659 7.69416 9.91659 6.08333C9.91659 4.4725 8.61075 3.16666 6.99992 3.16666C5.38909 3.16666 4.08325 4.4725 4.08325 6.08333C4.08325 7.69416 5.38909 9 6.99992 9Z" fill="white"/>
<path d="M7.00001 10.4583C4.07751 10.4583 1.69751 12.4183 1.69751 14.8333C1.69751 14.9967 1.82584 15.125 1.98918 15.125H12.0108C12.1742 15.125 12.3025 14.9967 12.3025 14.8333C12.3025 12.4183 9.92251 10.4583 7.00001 10.4583Z" fill="white"/>
</svg>
