<svg width="23" height="22" viewBox="0 0 23 22" fill="#fff" xmlns="http://www.w3.org/2000/svg">
<path d="M8.62508 1.83334C6.11425 1.83334 4.073 3.78584 4.073 6.18751C4.073 8.54334 5.99925 10.45 8.51008 10.5325C8.58675 10.5233 8.66341 10.5233 8.72091 10.5325C8.74008 10.5325 8.74966 10.5325 8.76883 10.5325C8.77841 10.5325 8.77841 10.5325 8.788 10.5325C11.2413 10.45 13.1676 8.54334 13.1772 6.18751C13.1772 3.78584 11.1359 1.83334 8.62508 1.83334Z" fill="white"/>
<path d="M13.4934 12.9708C10.8197 11.2658 6.45925 11.2658 3.76633 12.9708C2.54925 13.75 1.87842 14.8042 1.87842 15.9317C1.87842 17.0592 2.54925 18.1042 3.75675 18.8742C5.09842 19.7358 6.86175 20.1667 8.62508 20.1667C10.3884 20.1667 12.1518 19.7358 13.4934 18.8742C14.7009 18.095 15.3718 17.05 15.3718 15.9133C15.3622 14.7858 14.7009 13.7408 13.4934 12.9708Z" fill="white"/>
<path d="M19.157 6.72834C19.3103 8.50668 17.9878 10.065 16.1574 10.2758C16.1478 10.2758 16.1478 10.2758 16.1382 10.2758H16.1095C16.052 10.2758 15.9945 10.2758 15.9466 10.2942C15.017 10.34 14.1641 10.0558 13.522 9.53334C14.5091 8.69001 15.0745 7.42501 14.9595 6.05001C14.8924 5.30751 14.6241 4.62918 14.2216 4.05168C14.5857 3.87751 15.0074 3.76751 15.4386 3.73084C17.317 3.57501 18.9941 4.91334 19.157 6.72834Z" fill="white"/>
<path d="M21.0736 15.2075C20.997 16.0967 20.4028 16.8667 19.4061 17.3892C18.4478 17.8933 17.2403 18.1317 16.0424 18.1042C16.7324 17.5083 17.1349 16.7658 17.2116 15.9775C17.3074 14.8408 16.742 13.75 15.6112 12.8792C14.9691 12.3933 14.2216 12.0083 13.407 11.7242C15.5249 11.1375 18.1891 11.5317 19.8278 12.7967C20.7095 13.475 21.1599 14.3275 21.0736 15.2075Z" fill="white"/>
</svg>
