<svg width="21" height="21" viewBox="0 0 21 21" fill="#fff" xmlns="http://www.w3.org/2000/svg">
<path d="M14.1663 1.75H6.83375C3.64875 1.75 1.75 3.64875 1.75 6.83375V14.1663C1.75 16.625 2.87875 18.3137 4.865 18.9525C5.4425 19.1537 6.1075 19.25 6.83375 19.25H14.1663C14.8925 19.25 15.5575 19.1537 16.135 18.9525C18.1213 18.3137 19.25 16.625 19.25 14.1663V6.83375C19.25 3.64875 17.3513 1.75 14.1663 1.75ZM17.9375 14.1663C17.9375 16.0388 17.2025 17.22 15.7237 17.71C14.875 16.0387 12.8625 14.8487 10.5 14.8487C8.1375 14.8487 6.13375 16.03 5.27625 17.71H5.2675C3.80625 17.2375 3.0625 16.0475 3.0625 14.175V6.83375C3.0625 4.36625 4.36625 3.0625 6.83375 3.0625H14.1663C16.6337 3.0625 17.9375 4.36625 17.9375 6.83375V14.1663Z" fill="white"/>
<path d="M10.4999 7C8.76743 7 7.36743 8.4 7.36743 10.1325C7.36743 11.865 8.76743 13.2738 10.4999 13.2738C12.2324 13.2738 13.6324 11.865 13.6324 10.1325C13.6324 8.4 12.2324 7 10.4999 7Z" fill="white"/>
</svg>
