<svg width="24" height="24" viewBox="0 0 24 24" fill="#fff" xmlns="http://www.w3.org/2000/svg">
<path d="M20.2102 7.82046L12.5102 12.2805C12.2002 12.4605 11.8102 12.4605 11.4902 12.2805L3.79021 7.82046C3.24021 7.50046 3.10021 6.75046 3.52021 6.28046C3.81021 5.95046 4.14021 5.68046 4.49021 5.49046L9.91022 2.49046C11.0702 1.84046 12.9502 1.84046 14.1102 2.49046L19.5302 5.49046C19.8802 5.68046 20.2102 5.96046 20.5002 6.28046C20.9002 6.75046 20.7602 7.50046 20.2102 7.82046Z" fill="white"/>
<path d="M11.4305 14.1399V20.9599C11.4305 21.7198 10.6605 22.2199 9.98047 21.8899C7.92047 20.8799 4.45047 18.9899 4.45047 18.9899C3.23047 18.2999 2.23047 16.5599 2.23047 15.1299V9.96985C2.23047 9.17985 3.06047 8.67985 3.74047 9.06985L10.9305 13.2398C11.2305 13.4298 11.4305 13.7699 11.4305 14.1399Z" fill="white"/>
<path d="M12.5703 14.1399V20.9599C12.5703 21.7198 13.3403 22.2199 14.0203 21.8899C16.0803 20.8799 19.5503 18.9899 19.5503 18.9899C20.7703 18.2999 21.7703 16.5599 21.7703 15.1299V9.96985C21.7703 9.17985 20.9403 8.67985 20.2603 9.06985L13.0703 13.2398C12.7703 13.4298 12.5703 13.7699 12.5703 14.1399Z" fill="white"/>
</svg>
