<svg width="140" height="144" viewBox="0 0 140 144" fill="none" xmlns="http://www.w3.org/2000/svg">
<circle cx="70" cy="70" r="70" fill="#D9D9D9"/>
<path d="M86.813 70.1216H52.9561V108.861H86.813V70.1216Z" fill="#E2988F"/>
<path d="M103.111 42.9818C101.274 38.4583 97.3722 40.6621 97.3722 40.6621C99.6675 20.1327 89.3383 6.5625 69.9423 6.5625C50.5464 6.5625 40.2171 20.1327 42.3977 40.6621C42.3977 40.6621 38.6104 38.4583 36.6593 42.9818C34.7082 47.5052 38.1513 58.0598 40.3319 61.4234C42.3977 64.7869 46.1851 67.3386 46.1851 67.3386C46.1851 67.3386 46.4147 71.1661 47.4476 73.7178C48.3657 76.3854 59.4984 88.4478 62.7119 90.3036C66.9583 92.8553 73.2706 92.8553 77.058 90.3036C80.2716 88.4478 91.4042 76.3854 92.3223 73.7178C93.2405 71.0501 93.5848 67.3386 93.5848 67.3386C93.5848 67.3386 97.3722 64.7869 99.438 61.4234C101.619 58.0598 105.062 47.5052 103.111 42.9818Z" fill="#E2988F"/>
<path d="M70.1734 92.6249C67.5337 92.6249 64.7793 91.929 62.5987 90.6532C60.6476 89.4933 56.0568 84.9699 52.7285 81.1424L53.4171 80.5625C56.8602 84.39 61.2214 88.7974 63.0577 89.8413C67.1894 92.277 73.2722 92.277 76.9448 89.8413C78.7811 88.7974 83.1423 84.39 86.5854 80.5625L87.274 81.1424C83.9457 84.9699 79.355 89.4933 77.4039 90.6532C75.338 92.045 72.8131 92.6249 70.1734 92.6249Z" fill="#C46966"/>
<path d="M45.5352 58.5144L44.7378 58.6138L45.8195 67.4776L46.6168 67.3783L45.5352 58.5144Z" fill="#C46966"/>
<path d="M94.1683 58.5143L93.2036 67.2754L94.1162 67.378L95.0809 58.6169L94.1683 58.5143Z" fill="#C46966"/>
<path d="M39.2999 53.0719C39.0704 52.376 37.5784 46.5767 39.6442 44.9529C40.3329 44.489 40.9067 44.489 41.251 44.605C42.2839 44.9529 42.8578 46.3447 42.8578 46.4607L42.0544 46.8087C41.9396 46.4607 41.4805 45.6488 40.9067 45.5328C40.6772 45.4169 40.3329 45.5328 40.1033 45.7648C38.8409 46.6927 39.4147 50.6362 39.9885 52.9559L39.2999 53.0719Z" fill="#C46966"/>
<path d="M100.702 53.0724L99.899 52.8404C100.473 50.5207 101.047 46.5772 99.7842 45.6494C99.4399 45.4174 99.2104 45.4174 98.9809 45.5334C98.2922 45.7653 97.8332 46.8092 97.8332 46.8092L97.0298 46.4613C97.1446 46.3453 97.6036 44.9535 98.6365 44.6055C98.9809 44.4895 99.5547 44.4895 100.243 44.8375C102.309 46.5772 100.817 52.4925 100.702 53.0724Z" fill="#C46966"/>
<path d="M45.1522 51.4487C50.8907 51.4487 46.5294 32.7751 51.1202 28.1357C53.4156 25.816 56.7439 26.164 59.6131 26.9758C62.9414 27.7877 66.3845 28.9476 69.9424 29.0636C73.7297 29.1796 77.1728 27.7877 80.8454 26.8599C83.5999 26.1639 86.6986 25.932 88.8793 28.1357C93.3553 32.6591 88.994 51.4487 94.8473 51.4487C94.5029 47.1572 94.3882 42.4018 97.6017 40.6621C99.6676 20.1327 89.3383 6.5625 69.9424 6.5625C50.5464 6.5625 40.2171 20.1327 42.3978 40.6621C45.0374 42.2859 45.6113 46.9253 45.1522 51.4487Z" fill="#4C224B"/>
<path d="M124.688 112.225C106.554 104.106 86.9285 101.206 86.9285 101.206C77.8617 110.717 60.9906 110.833 53.0716 101.206C53.0716 101.206 33.3313 104.106 15.3125 112.225C26.4451 130.898 46.7592 143.425 69.9426 143.425C93.126 143.425 113.44 130.898 124.688 112.225Z" fill="#F4BA5D"/>
<path d="M48.3677 101.903L52.9584 93.5518L67.8784 107.006L58.8117 117.097L48.3677 101.903Z" fill="white"/>
<path d="M91.4053 101.903L86.9293 93.5518L72.0093 107.006L81.076 117.097L91.4053 101.903Z" fill="white"/>
</svg>
