<svg width="35" height="17" viewBox="0 0 35 17" fill="none" xmlns="http://www.w3.org/2000/svg">
<path d="M7.82403 10.9178C6.15889 10.9178 4.81397 12.2826 4.81397 13.9589C4.81397 14.0341 4.81397 14.1201 4.82464 14.2061C4.9634 15.7642 6.2763 16.9893 7.82403 16.9893C9.38243 16.9893 10.706 15.7642 10.8341 14.1738C10.8448 14.0986 10.8448 14.0234 10.8448 13.9589C10.8448 12.2826 9.48917 10.9178 7.82403 10.9178ZM10.0015 14.1416C9.90546 15.2699 8.9448 16.1618 7.81336 16.1618C6.69259 16.1618 5.73193 15.2699 5.63586 14.1416C5.63586 14.0771 5.63586 14.0234 5.63586 13.9589C5.63586 12.7446 6.61787 11.7453 7.82403 11.7453C9.03019 11.7453 10.0229 12.7339 10.0229 13.9589C10.0122 14.0126 10.0122 14.0664 10.0015 14.1416ZM28.5102 10.9178C26.8451 10.9178 25.4895 12.2826 25.4895 13.9589C25.4895 14.0341 25.4895 14.0986 25.5002 14.2061C25.6176 15.7642 26.9411 16.9893 28.4995 16.9893C30.0579 16.9893 31.3708 15.7642 31.4989 14.2061C31.5096 14.1201 31.5096 14.0449 31.5096 13.9589C31.5203 12.2826 30.1754 10.9178 28.5102 10.9178ZM30.6984 14.1416C30.6023 15.2699 29.6523 16.1618 28.5209 16.1618C27.3895 16.1618 26.4288 15.2807 26.3434 14.1201C26.3434 14.0664 26.3327 14.0126 26.3327 13.9589C26.3327 12.7446 27.3147 11.7453 28.5209 11.7453C29.7271 11.7453 30.7091 12.7339 30.7091 13.9589C30.6984 14.0234 30.6984 14.0879 30.6984 14.1416ZM11.8054 7.71555L11.8268 3.07332C11.8268 2.96587 11.7841 2.85841 11.7094 2.78319C11.6346 2.70796 11.5279 2.66498 11.4212 2.66498H8.18695C8.06953 2.66498 7.96279 2.70796 7.88808 2.79393L4.50442 6.35082C4.38701 6.46903 4.35499 6.65171 4.41903 6.80215C4.48307 6.95259 4.63251 7.06005 4.79262 7.06005L7.53583 7.09229L7.94145 7.88748C8.01616 8.02718 8.15493 8.11315 8.31504 8.11315H11.3998C11.6133 8.12389 11.8054 7.94121 11.8054 7.71555ZM10.9729 7.29646H8.56054L8.15493 6.50126C8.08021 6.36157 7.94145 6.2756 7.79201 6.2756L5.76395 6.24336L8.36841 3.48167H10.9942L10.9729 7.29646ZM35 11.1113V13.9589C35 14.1846 34.8185 14.378 34.5837 14.378H32.2034V13.5506H34.1781V11.5303H34.082C33.8579 11.5303 33.6658 11.3477 33.6658 11.1113V3.40645L33.6124 1.88053V0.827434H13.4065V1.4507V13.5398H24.817V14.3673H11.5493V13.5398H12.5846V1.86978H7.35438L1.49436 8.28508V11.1113C1.49436 11.3369 1.3129 11.5303 1.07807 11.5303H0.821897V13.5506H4.15218V14.378H0.416285C0.192132 14.378 0 14.1953 0 13.9589V11.1113C0 10.8856 0.181458 10.6922 0.416285 10.6922H0.672461V8.12389C0.672461 8.01643 0.715157 7.91972 0.779201 7.8445L6.87405 1.18205C6.94877 1.09608 7.06618 1.0531 7.17292 1.0531H12.574V0.41909C12.574 0.193426 12.7554 0 12.9902 0H34.018C34.2421 0 34.4343 0.18268 34.4343 0.41909V1.86978L34.4877 3.3957V10.7029H34.5837C34.8185 10.7029 35 10.8856 35 11.1113Z" fill="#231F20"/>
</svg>
